# xmcd CD database file
#
# Track frame offsets:
#	150
#	30848
#	59802
#	78188
#	103541
#	134975
#	166070
#	187574
#	207494
#
# Disc length: 3162 seconds
#
# Revision: 0
# Processed by: cddbd v1.5.2PL0 Copyright (c) Steve Scherf et al.
# Submitted via: CDex 1.51
#
DISCID=710c5809
DTITLE=Gold'n Teasdale - A Little Deedop
DYEAR=2002
DGENRE=Jazz
TTITLE0=Baby, I'm Baroque
TTITLE1=Zorro's Waltz
TTITLE2=A Little Deedop
TTITLE3=Canção Brasileira
TTITLE4=1199
TTITLE5=Love Evermore
TTITLE6=Rondo for Harp and Drums
TTITLE7=The Simple Truth
TTITLE8=Interplay
EXTD=YEAR: 2002
EXTT0=
EXTT1=
EXTT2=
EXTT3=
EXTT4=
EXTT5=
EXTT6=
EXTT7=
EXTT8=
PLAYORDER=
